<?xml version="1.0" encoding="UTF-8" standalone="no"?>
<!-- Created with Inkscape (http://www.inkscape.org/) -->

<svg
   xmlns:osb="http://www.openswatchbook.org/uri/2009/osb"
   xmlns:dc="http://purl.org/dc/elements/1.1/"
   xmlns:cc="http://creativecommons.org/ns#"
   xmlns:rdf="http://www.w3.org/1999/02/22-rdf-syntax-ns#"
   xmlns:svg="http://www.w3.org/2000/svg"
   xmlns="http://www.w3.org/2000/svg"
   xmlns:xlink="http://www.w3.org/1999/xlink"
   xmlns:sodipodi="http://sodipodi.sourceforge.net/DTD/sodipodi-0.dtd"
   xmlns:inkscape="http://www.inkscape.org/namespaces/inkscape"
   width="800"
   height="400"
   id="svg2"
   version="1.1"
   inkscape:version="0.48.1 r9760"
   sodipodi:docname="avatars.svg">
  <defs
     id="defs4">
    <linearGradient
       id="linearGradient4048"
       osb:paint="solid"
       gradientTransform="translate(470,-180)">
      <stop
         style="stop-color:#66bb5b;stop-opacity:1;"
         offset="0"
         id="stop4050" />
    </linearGradient>
    <linearGradient
       id="linearGradient4042"
       osb:paint="solid"
       gradientTransform="translate(470,-180)">
      <stop
         style="stop-color:#d78888;stop-opacity:1;"
         offset="0"
         id="stop4044" />
    </linearGradient>
    <linearGradient
       id="linearGradient4036"
       osb:paint="solid">
      <stop
         style="stop-color:#b6b6b6;stop-opacity:1;"
         offset="0"
         id="stop4038" />
    </linearGradient>
    <linearGradient
       id="linearGradient4030"
       osb:paint="solid"
       gradientTransform="translate(470,472.36218)">
      <stop
         style="stop-color:#bdbb23;stop-opacity:1;"
         offset="0"
         id="stop4032" />
    </linearGradient>
    <linearGradient
       inkscape:collect="always"
       xlink:href="#linearGradient4030"
       id="linearGradient4034"
       x1="40"
       y1="205"
       x2="140"
       y2="205"
       gradientUnits="userSpaceOnUse" />
    <linearGradient
       inkscape:collect="always"
       xlink:href="#linearGradient4036"
       id="linearGradient4040"
       x1="155"
       y1="205"
       x2="255"
       y2="205"
       gradientUnits="userSpaceOnUse" />
    <linearGradient
       inkscape:collect="always"
       xlink:href="#linearGradient4042"
       id="linearGradient4046"
       x1="270"
       y1="205"
       x2="370"
       y2="205"
       gradientUnits="userSpaceOnUse" />
    <linearGradient
       inkscape:collect="always"
       xlink:href="#linearGradient4048"
       id="linearGradient4052"
       x1="385"
       y1="205"
       x2="485"
       y2="205"
       gradientUnits="userSpaceOnUse" />
  </defs>
  <sodipodi:namedview
     id="base"
     pagecolor="#ffffff"
     bordercolor="#666666"
     borderopacity="1.0"
     inkscape:pageopacity="0.0"
     inkscape:pageshadow="2"
     inkscape:zoom="1.167831"
     inkscape:cx="499.50749"
     inkscape:cy="204.31907"
     inkscape:document-units="px"
     inkscape:current-layer="layer1"
     showgrid="false"
     inkscape:window-width="1440"
     inkscape:window-height="783"
     inkscape:window-x="0"
     inkscape:window-y="0"
     inkscape:window-maximized="0">
    <inkscape:grid
       type="xygrid"
       id="grid2985"
       empspacing="5"
       visible="true"
       enabled="true"
       snapvisiblegridlinesonly="true"
       originx="0px" />
  </sodipodi:namedview>
  <metadata
     id="metadata7">
    <rdf:RDF>
      <cc:Work
         rdf:about="">
        <dc:format>image/svg+xml</dc:format>
        <dc:type
           rdf:resource="http://purl.org/dc/dcmitype/StillImage" />
        <dc:title></dc:title>
      </cc:Work>
    </rdf:RDF>
  </metadata>
  <g
     inkscape:label="Layer 1"
     inkscape:groupmode="layer"
     id="layer1"
     transform="translate(0,-652.36218)">
    <rect
       style="fill:#000000;fill-opacity:1;fill-rule:nonzero;stroke:none"
       id="rect2987"
       width="100"
       height="100"
       x="35"
       y="677.36218"
       ry="9.9999971" />
    <rect
       y="677.36218"
       x="150"
       height="100"
       width="100"
       id="rect3757"
       style="fill:#000000;fill-opacity:1;fill-rule:nonzero;stroke:none"
       ry="9.9999971" />
    <rect
       style="fill:#000000;fill-opacity:1;fill-rule:nonzero;stroke:none"
       id="rect3759"
       width="100"
       height="100"
       x="265"
       y="677.36218"
       ry="9.9999971" />
    <rect
       y="677.36218"
       x="380"
       height="100"
       width="100"
       id="rect3761"
       style="fill:#000000;fill-opacity:1;fill-rule:nonzero;stroke:none"
       ry="9.9999971" />
    <text
       xml:space="preserve"
       style="font-size:144.43301392px;font-style:italic;font-variant:normal;font-weight:normal;font-stretch:normal;text-align:start;line-height:125%;letter-spacing:0px;word-spacing:0px;writing-mode:lr-tb;text-anchor:start;fill:#ffffff;fill-opacity:1;stroke:none;font-family:Big Caslon;-inkscape-font-specification:Big Caslon Italic"
       x="361.03491"
       y="812.96692"
       id="text3763"
       sodipodi:linespacing="125%"
       transform="scale(1.0663789,0.93775299)"><tspan
         sodipodi:role="line"
         id="tspan3765"
         x="361.03491"
         y="812.96692">$</tspan></text>
    <path
       style="fill:#ffffff;fill-opacity:1;stroke:#000000;stroke-width:1.03279555px;stroke-linecap:butt;stroke-linejoin:miter;stroke-opacity:1"
       d="m 316.66667,703.36218 c 0,0 8.33333,-16 23.33333,-16 15,0 18.33333,21.33333 10,37.33333 -8.33334,16 -46.66666,42.66667 -46.66666,42.66667 0,0 -26.66668,-32 -28.33334,-48 -1.66667,-16 10,-32 25,-32 15,0 16.66667,16 16.66667,16 z"
       id="path3821"
       inkscape:connector-curvature="0"
       sodipodi:nodetypes="czzczzc" />
    <path
       style="fill:#ffffff;fill-opacity:1;stroke:#000000;stroke-width:1.08110929px;stroke-linecap:butt;stroke-linejoin:miter;stroke-opacity:1"
       d="m 200.79545,687.33093 c -1.02126,-0.0195 -2.04388,0.002 -3.06818,0.0334 -16.38886,0.49632 -27.27272,5.35699 -32.72727,21.42795 -5.45455,16.07096 10.90909,37.49891 10.90909,37.49891 0,0 -5.45454,10.71397 0,16.07096 0.94408,0.9272 2.88662,1.70566 5.45455,2.3102 l 0,-10.34568 c 0,-1.48389 1.21636,-2.67849 2.72727,-2.67849 1.51091,0 2.72727,1.1946 2.72727,2.67849 l 0,11.28315 c 1.71876,0.21532 3.54661,0.37725 5.45455,0.50222 l 0,-11.78537 c 0,-1.48389 1.21636,-2.67849 2.72727,-2.67849 1.51091,0 2.72727,1.1946 2.72727,2.67849 l 0,12.01974 c 1.81398,0.0363 3.6405,0.0392 5.45455,0 l 0,-12.01974 c 0,-1.48389 1.21636,-2.67849 2.72727,-2.67849 1.51091,0 2.72727,1.1946 2.72727,2.67849 l 0,11.75189 c 1.90981,-0.12669 3.73613,-0.28545 5.45455,-0.50222 l 0,-11.24967 c 0,-1.48389 1.21636,-2.67849 2.72727,-2.67849 1.51091,0 2.72727,1.1946 2.72727,2.67849 l 0,10.3122 c 2.5627,-0.60603 4.51116,-1.35021 5.45455,-2.27672 5.45455,-5.35699 0,-16.07096 0,-16.07096 0,0 16.36364,-21.42795 10.90909,-37.49891 -5.11364,-15.06653 -19.79466,-21.16846 -35.11364,-21.46143 z m -11.25,10.74746 c 4.5187,0 8.18182,4.79681 8.18182,10.71397 0,5.91717 -3.66312,10.71398 -8.18182,10.71398 -4.51869,0 -8.18181,-4.79681 -8.18181,-10.71398 0,-5.91716 3.66312,-10.71397 8.18181,-10.71397 z m 21.81819,0 c 4.51869,0 8.18181,4.79681 8.18181,10.71397 0,5.91717 -3.66312,10.71398 -8.18181,10.71398 -4.5187,0 -8.18182,-4.79681 -8.18182,-10.71398 0,-5.91716 3.66312,-10.71397 8.18182,-10.71397 z m -14.18182,32.14192 c 1.50623,0 2.72727,2.39841 2.72727,5.35699 0,2.95858 -1.22104,5.35699 -2.72727,5.35699 -1.50623,0 -2.72727,-2.39841 -2.72727,-5.35699 0,-2.95858 1.22104,-5.35699 2.72727,-5.35699 z m 6.54545,0 c 1.50623,0 2.72728,2.39841 2.72728,5.35699 0,2.95858 -1.22105,5.35699 -2.72728,5.35699 -1.50623,0 -2.72727,-2.39841 -2.72727,-5.35699 0,-2.95858 1.22104,-5.35699 2.72727,-5.35699 z"
       id="path3823"
       inkscape:connector-curvature="0" />
    <path
       transform="matrix(1.0835836,0,0,1.1148914,19.750174,665.18036)"
       style="fill:#ffffff;fill-opacity:1;fill-rule:nonzero;stroke:none"
       inkscape:transform-center-x="3.2064459"
       inkscape:transform-center-y="-0.89294621"
       d="m 83.399999,74.499999 c 0,0 -4.726027,8.182332 -0.254637,11.953015 -3.268253,2.320198 -11.487793,-3.3121 -11.487793,-3.3121 0,0 -7.749416,4.923107 -5.780313,10.465533 -4.011742,0.589045 -8.632726,-8.271363 -8.632726,-8.271363 0,0 -7.179333,0.03809 -9.981789,6.580524 -3.836025,-1.27666 -3.800005,-11.335756 -3.800005,-11.335756 0,0 -8.163359,-4.176159 -11.896557,1.187996 -2.781257,-2.850554 1.903251,-11.803264 1.903251,-11.803264 0,0 -7.39869,-7.015116 -11.085967,-4.476687 -1.089483,-3.771455 7.170495,-9.566787 7.170495,-9.566787 0,0 0.208237,-6.425868 -7.735716,-9.115815 0.851248,-3.828129 10.795065,-5.138673 10.795065,-5.138673 0,0 3.608934,-6.522553 -2.613306,-11.666621 2.597506,-3.007628 11.946617,0.466648 11.946617,0.466648 0,0 4.427124,-6.08596 3.107781,-11.544743 3.748983,-1.498042 10.361342,5.965066 10.361342,5.965066 0,0 9.415275,-4.991025 8.116913,-8.778105 4.041326,0.354054 6.402408,10.096959 6.402408,10.096959 0,0 8.73891,0.865708 11.266559,-4.000508 3.407711,2.125287 0.976759,11.915761 0.976759,11.915761 0,0 6.647093,5.507731 11.835171,1.693557 1.993193,3.410147 -4.672652,11.004805 -4.672652,11.004805 0,0 2.253165,8.057491 9.692488,6.999648 0.122667,3.913517 -9.251615,7.572781 -9.251615,7.572781 0,0 -1.879163,7.836236 5.329373,10.702205 -1.775873,3.52022 -11.711146,2.405924 -11.711146,2.405924 z"
       id="path3860"
       inkscape:connector-curvature="0"
       sodipodi:nodetypes="ccccccccccccccccccccccccccc" />
    <text
       xml:space="preserve"
       style="font-size:37.19635773px;font-style:normal;font-weight:normal;line-height:125%;letter-spacing:0px;word-spacing:0px;fill:#000000;fill-opacity:1;stroke:none;font-family:Bitstream Vera Sans"
       x="60.054329"
       y="689.39923"
       id="text3867"
       sodipodi:linespacing="125%"
       transform="scale(0.92990885,1.0753742)"><tspan
         sodipodi:role="line"
         id="tspan3869"
         x="60.054329"
         y="689.39923">^^</tspan></text>
    <text
       xml:space="preserve"
       style="font-size:40px;font-style:normal;font-weight:normal;line-height:125%;letter-spacing:0px;word-spacing:0px;fill:#000000;fill-opacity:1;stroke:none;font-family:Bitstream Vera Sans"
       x="75"
       y="730.36218"
       id="text3871"
       sodipodi:linespacing="125%"><tspan
         sodipodi:role="line"
         id="tspan3873"
         x="75"
         y="730.36218">_</tspan></text>
    <path
       style="fill:url(#linearGradient4034);fill-opacity:1;fill-rule:nonzero;stroke:none"
       d="M 50 155 C 44.460002 155 40 159.46 40 165 L 40 245 C 40 250.54 44.460002 255 50 255 L 130 255 C 135.54 255 140 250.54 140 245 L 140 165 C 140 159.46 135.54 155 130 155 L 50 155 z M 93.59375 160.78125 C 97.972865 161.17599 100.53125 172.03125 100.53125 172.03125 C 100.53125 172.03125 110.01108 172.9878 112.75 167.5625 C 116.44254 169.93196 113.8125 180.875 113.8125 180.875 C 113.8125 180.875 121.00328 187.00239 126.625 182.75 C 128.78479 186.55194 121.5625 195.03125 121.5625 195.03125 C 121.5625 195.03125 124.00137 203.99188 132.0625 202.8125 C 132.19542 207.17564 122.03125 211.25 122.03125 211.25 C 122.03125 211.25 120.00145 219.99226 127.8125 223.1875 C 125.88819 227.11216 115.125 225.875 115.125 225.875 C 115.125 225.875 109.99863 235.01485 114.84375 239.21875 C 111.30233 241.80552 102.40625 235.5 102.40625 235.5 C 102.40625 235.5 93.991312 241.0083 96.125 247.1875 C 91.777942 247.84422 86.78125 237.96875 86.78125 237.96875 C 86.78125 237.96875 79.005445 237.98718 75.96875 245.28125 C 71.812096 243.85791 71.84375 232.65625 71.84375 232.65625 C 71.84375 232.65625 63.013982 227.9883 58.96875 233.96875 C 55.955025 230.79069 61.03125 220.8125 61.03125 220.8125 C 61.03125 220.8125 52.995473 213.01368 49 215.84375 C 47.819455 211.63899 56.78125 205.15625 56.78125 205.15625 C 56.78125 205.15625 57.014187 197.999 48.40625 195 C 49.328649 190.73205 60.09375 189.28125 60.09375 189.28125 C 60.09375 189.28125 63.992317 181.98508 57.25 176.25 C 60.064615 172.89682 70.1875 176.78125 70.1875 176.78125 C 70.1875 176.78125 74.992118 169.9922 73.5625 163.90625 C 77.624836 162.23609 84.8125 170.5625 84.8125 170.5625 C 84.8125 170.5625 95.000634 165.00344 93.59375 160.78125 z M 73.6875 189.84375 L 64.5 200.71875 L 67.90625 200.71875 L 75.34375 193 L 82.78125 200.71875 L 86.15625 200.71875 L 77 189.84375 L 73.6875 189.84375 z M 102.65625 189.84375 L 93.5 200.71875 L 96.875 200.71875 L 104.3125 193 L 111.75 200.71875 L 115.15625 200.71875 L 105.96875 189.84375 L 102.65625 189.84375 z M 79.625 214.65625 L 79.625 217.4375 L 100.375 217.4375 L 100.375 214.65625 L 79.625 214.65625 z "
       transform="translate(0,652.36218)"
       id="rect3875"
       inkscape:export-filename="/Users/jks/Sites/Tootr/img/life.png"
       inkscape:export-xdpi="57.599998"
       inkscape:export-ydpi="57.599998" />
    <path
       style="fill:url(#linearGradient4040);fill-opacity:1;fill-rule:nonzero;stroke:none"
       d="M 165 155 C 159.46 155 155 159.46 155 165 L 155 245 C 155 250.54 159.46 255 165 255 L 245 255 C 250.54 255 255 250.54 255 245 L 255 165 C 255 159.46 250.54 155 245 155 L 165 155 z M 205.78125 164.96875 C 221.10023 165.26172 235.79261 171.37097 240.90625 186.4375 C 246.3608 202.50846 230 223.9375 230 223.9375 C 230 223.9375 235.45455 234.64301 230 240 C 229.05661 240.92651 227.09395 241.67522 224.53125 242.28125 L 224.53125 231.96875 C 224.53125 230.48486 223.32341 229.28125 221.8125 229.28125 C 220.30159 229.28125 219.09375 230.48486 219.09375 231.96875 L 219.09375 243.21875 C 217.37533 243.43552 215.53481 243.59206 213.625 243.71875 L 213.625 231.96875 C 213.625 230.48486 212.41716 229.28125 210.90625 229.28125 C 209.39534 229.28125 208.1875 230.48486 208.1875 231.96875 L 208.1875 243.96875 C 206.37345 244.00795 204.53273 244.00505 202.71875 243.96875 L 202.71875 231.96875 C 202.71875 230.48486 201.51091 229.28125 200 229.28125 C 198.48909 229.28125 197.28125 230.48486 197.28125 231.96875 L 197.28125 243.75 C 195.37331 243.62503 193.53126 243.46532 191.8125 243.25 L 191.8125 231.96875 C 191.8125 230.48486 190.60466 229.28125 189.09375 229.28125 C 187.58284 229.28125 186.375 230.48486 186.375 231.96875 L 186.375 242.3125 C 183.80707 241.70796 181.85033 240.9272 180.90625 240 C 175.45171 234.64301 180.90625 223.9375 180.90625 223.9375 C 180.90625 223.9375 164.54545 202.50846 170 186.4375 C 175.45455 170.36654 186.32989 165.49632 202.71875 165 C 203.74305 164.9686 204.75999 164.94925 205.78125 164.96875 z M 184.1875 182.4375 L 190.3125 190.8125 L 183.625 200 L 186.96875 200 L 192 193.09375 L 197.03125 200 L 200.375 200 L 193.78125 190.96875 L 200.03125 182.4375 L 196.6875 182.4375 L 192.125 188.6875 L 187.53125 182.4375 L 184.1875 182.4375 z M 210.46875 182.4375 L 216.625 190.8125 L 209.90625 200 L 213.25 200 L 218.28125 193.09375 L 223.3125 200 L 226.65625 200 L 220.09375 190.96875 L 226.34375 182.4375 L 223 182.4375 L 218.40625 188.6875 L 213.8125 182.4375 L 210.46875 182.4375 z M 202.1875 207.84375 C 200.68127 207.84375 199.46875 210.26017 199.46875 213.21875 C 199.46875 216.17733 200.68127 218.5625 202.1875 218.5625 C 203.69373 218.5625 204.90625 216.17733 204.90625 213.21875 C 204.90625 210.26017 203.69373 207.84375 202.1875 207.84375 z M 208.71875 207.84375 C 207.21252 207.84375 206 210.26017 206 213.21875 C 206 216.17733 207.21252 218.5625 208.71875 218.5625 C 210.22498 218.5625 211.46875 216.17733 211.46875 213.21875 C 211.46875 210.26017 210.22498 207.84375 208.71875 207.84375 z "
       transform="translate(0,652.36218)"
       id="rect3877"
       inkscape:export-filename="/Users/jks/Sites/Tootr/img/death.png"
       inkscape:export-xdpi="57.599998"
       inkscape:export-ydpi="57.599998" />
    <path
       style="fill:url(#linearGradient4046);fill-opacity:1;fill-rule:nonzero;stroke:none"
       d="M 280 155 C 274.46 155 270 159.46 270 165 L 270 245 C 270 250.54 274.46 255 280 255 L 360 255 C 365.54 255 370 250.54 370 245 L 370 165 C 370 159.46 365.54 155 360 155 L 280 155 z M 305 165 C 320 165 321.65625 181 321.65625 181 C 321.65625 181 330 165 345 165 C 360 165 363.33333 186.34375 355 202.34375 C 346.66666 218.34375 308.34375 245 308.34375 245 C 308.34375 245 281.66666 213 280 197 C 278.33333 181 290 165 305 165 z "
       transform="translate(0,652.36218)"
       id="rect3879"
       inkscape:export-filename="/Users/jks/Sites/Tootr/img/sex.png"
       inkscape:export-xdpi="57.599998"
       inkscape:export-ydpi="57.599998" />
    <path
       style="fill:url(#linearGradient4052);fill-opacity:1;fill-rule:nonzero;stroke:none"
       d="M 395 155 C 389.46 155 385 159.46 385 165 L 385 245 C 385 250.54 389.46 255 395 255 L 417.25 255 L 420.65625 240.40625 C 413.36593 239.95478 407.8304 238.3304 404.03125 235.53125 C 400.33475 232.73211 398.97319 229.04256 400 224.4375 C 400.41071 222.54132 401.55799 220.91694 403.40625 219.5625 C 405.25448 218.1178 407.19638 217.37502 409.25 217.375 C 410.99554 217.37502 412.37943 217.84707 413.40625 218.75 C 414.53571 219.65297 415.14729 220.77059 415.25 222.125 C 414.83925 222.84738 414.49552 223.55891 414.1875 224.28125 C 413.87944 224.91333 413.61159 225.72552 413.40625 226.71875 C 412.79015 229.42761 412.95086 231.93013 413.875 234.1875 C 414.7991 236.35458 417.22312 237.77764 421.125 238.5 L 428.03125 208.4375 C 426.90173 208.16665 425.7857 207.86121 424.65625 207.5 C 423.62941 207.04856 422.74998 206.71187 422.03125 206.53125 C 417.82133 204.99627 414.49555 202.76102 412.03125 199.78125 C 409.56691 196.71126 408.84818 192.95575 409.875 188.53125 C 410.49106 185.64186 411.66066 183.06993 413.40625 180.8125 C 415.15179 178.46489 417.20083 176.43442 419.5625 174.71875 C 421.92411 173.00321 424.61599 171.61486 427.59375 170.53125 C 430.67412 169.44778 433.83919 168.6703 437.125 168.21875 L 440.0625 155 L 395 155 z M 442.90625 155 L 439.75 167.9375 C 440.46871 167.84728 441.13387 167.81257 441.75 167.8125 C 442.46871 167.81257 443.13387 167.81257 443.75 167.8125 C 444.36603 167.81257 444.97761 167.81257 445.59375 167.8125 C 446.31246 167.81257 446.92404 167.84728 447.4375 167.9375 L 450.375 155 L 442.90625 155 z M 453.25 155 L 450.0625 168.21875 C 456.01789 168.94118 460.7588 170.66622 464.25 173.375 C 467.84373 176.08391 469.17404 179.63811 468.25 184.0625 C 467.73652 185.95875 466.58924 187.61783 464.84375 189.0625 C 463.09811 190.41697 461.15621 191.0938 459 191.09375 C 457.25437 191.0938 455.87049 190.653 454.84375 189.75 C 453.91956 188.8471 453.41512 187.72948 453.3125 186.375 C 453.82584 185.65269 454.22315 184.97587 454.53125 184.34375 C 454.83923 183.62145 455.10707 182.7433 455.3125 181.75 C 455.92852 179.13151 455.82138 176.7956 455 174.71875 C 454.17849 172.64203 452.36605 171.18772 449.59375 170.375 L 442.84375 199.78125 C 443.97318 200.14247 444.87493 200.4479 445.59375 200.71875 C 446.41514 200.98967 447.40171 201.2604 448.53125 201.53125 C 453.6652 203.0663 457.41954 205.46816 459.78125 208.71875 C 462.2455 211.8791 462.96423 215.76998 461.9375 220.375 C 460.80795 225.52183 457.61162 229.92292 452.375 233.625 C 447.13825 237.2368 440.93756 239.4686 433.75 240.28125 L 430.46875 255 L 475 255 C 480.54 255 485 250.54 485 245 L 485 165 C 485 159.46 480.54 155 475 155 L 453.25 155 z M 443.125 169.71875 C 442.50887 169.71882 441.84371 169.75353 441.125 169.84375 C 440.50887 169.84382 439.89728 169.87853 439.28125 169.96875 L 433.125 197.1875 C 435.58928 197.9099 438.01331 198.58673 440.375 199.21875 L 447 169.96875 C 446.58922 169.87853 445.99996 169.84382 445.28125 169.84375 C 444.56243 169.75353 443.84371 169.71882 443.125 169.71875 z M 436.65625 170.375 C 432.95972 171.27802 429.84822 172.86769 427.28125 175.125 C 424.81689 177.29214 423.16516 180.1001 422.34375 183.53125 C 421.62496 186.96251 422.07583 189.70452 423.71875 191.78125 C 425.3616 193.76779 427.67849 195.35746 430.65625 196.53125 L 436.65625 170.375 z M 430.5 209.125 L 423.71875 238.78125 C 424.23212 238.87155 424.76781 238.90625 425.28125 238.90625 L 426.96875 238.90625 L 429.28125 238.90625 C 430.10265 238.81596 430.82138 238.74655 431.4375 238.65625 L 437.75 211 C 436.51779 210.54855 435.29462 210.20841 434.0625 209.9375 C 432.93297 209.66665 431.73212 209.39592 430.5 209.125 z M 440.21875 211.6875 L 434.21875 238.09375 C 438.22323 237.10051 441.44187 235.40672 443.90625 232.96875 C 446.4732 230.4405 448.12493 227.53188 448.84375 224.28125 C 449.66513 220.75976 449.12943 218.05247 447.28125 216.15625 C 445.53563 214.16979 443.19642 212.68077 440.21875 211.6875 z M 430.96875 240.53125 C 430.24995 240.62154 429.53122 240.6875 428.8125 240.6875 L 426.65625 240.6875 L 423.28125 240.6875 L 420.125 255 L 427.59375 255 L 430.96875 240.53125 z "
       transform="translate(0,652.36218)"
       id="rect3881"
       inkscape:export-filename="/Users/jks/Sites/Tootr/img/money.png"
       inkscape:export-xdpi="57.599998"
       inkscape:export-ydpi="57.599998" />
    <g
       style="font-size:40px;font-style:normal;font-weight:normal;line-height:125%;letter-spacing:0px;word-spacing:0px;fill:#000000;fill-opacity:1;stroke:none;font-family:Bitstream Vera Sans"
       id="text3907" />
    <g
       transform="scale(0.99167492,1.008395)"
       style="font-size:31.8440361px;font-style:normal;font-weight:normal;line-height:125%;letter-spacing:0px;word-spacing:0px;fill:#000000;fill-opacity:1;stroke:none;font-family:Bitstream Vera Sans"
       id="text3918" />
    <g
       transform="scale(0.9916749,1.008395)"
       style="font-size:31.8440361px;font-style:normal;font-weight:normal;line-height:125%;letter-spacing:0px;word-spacing:0px;fill:#000000;fill-opacity:1;stroke:none;font-family:Bitstream Vera Sans"
       id="text3922" />
    <rect
       style="fill:url(#linearGradient4030);fill-opacity:1;fill-rule:nonzero;stroke:none"
       id="rect4054"
       width="50"
       height="50"
       x="540"
       y="702.36218"
       ry="9.9999971" />
    <rect
       ry="9.9999971"
       y="702.36218"
       x="600"
       height="50"
       width="50"
       id="rect4056"
       style="fill:#b6b6b6;fill-opacity:1;fill-rule:nonzero;stroke:none" />
    <rect
       style="fill:url(#linearGradient4042);fill-opacity:1;fill-rule:nonzero;stroke:none"
       id="rect4058"
       width="50"
       height="50"
       x="660"
       y="702.36218"
       ry="9.9999971" />
    <rect
       ry="9.9999971"
       y="702.36218"
       x="720"
       height="50"
       width="50"
       id="rect4060"
       style="fill:url(#linearGradient4048);fill-opacity:1;fill-rule:nonzero;stroke:none" />
    <rect
       ry="9.9999971"
       y="762.36218"
       x="540"
       height="50"
       width="50"
       id="rect4062"
       style="fill:#7e7d17;fill-opacity:1;fill-rule:nonzero;stroke:none" />
    <rect
       style="fill:#b6b6b6;fill-opacity:1;fill-rule:nonzero;stroke:none"
       id="rect4064"
       width="50"
       height="50"
       x="600"
       y="762.36218"
       ry="9.9999971" />
    <rect
       ry="9.9999971"
       y="762.36218"
       x="660"
       height="50"
       width="50"
       id="rect4066"
       style="fill:#9b6262;fill-opacity:1;fill-rule:nonzero;stroke:none" />
    <rect
       style="fill:#4c8046;fill-opacity:1;fill-rule:nonzero;stroke:none"
       id="rect4068"
       width="50"
       height="50"
       x="720"
       y="762.36218"
       ry="9.9999971" />
  </g>
</svg>
